<?xml version="1.0" encoding="UTF-8" standalone="no"?>
<svg
   xmlns:dc="http://purl.org/dc/elements/1.1/"
   xmlns:cc="http://creativecommons.org/ns#"
   xmlns:rdf="http://www.w3.org/1999/02/22-rdf-syntax-ns#"
   xmlns:svg="http://www.w3.org/2000/svg"
   xmlns="http://www.w3.org/2000/svg"
   xmlns:sodipodi="http://sodipodi.sourceforge.net/DTD/sodipodi-0.dtd"
   xmlns:inkscape="http://www.inkscape.org/namespaces/inkscape"
   version="1.1"
   viewBox="0 0 440.104 552.999"
   id="svg78"
   sodipodi:docname="logo.svg"
   inkscape:version="1.0.1 (3bc2e813f5, 2020-09-07)">
  <metadata
     id="metadata84">
    <rdf:RDF>
      <cc:Work
         rdf:about="">
        <dc:format>image/svg+xml</dc:format>
        <dc:type
           rdf:resource="http://purl.org/dc/dcmitype/StillImage" />
      </cc:Work>
    </rdf:RDF>
  </metadata>
  <defs
     id="defs82">
    <rect
       x="-1.3011742"
       y="-1.3011742"
       width="439.79687"
       height="347.4135"
       id="rect911" />
  </defs>
  <sodipodi:namedview
     pagecolor="#ffffff"
     bordercolor="#666666"
     borderopacity="1"
     objecttolerance="10"
     gridtolerance="10"
     guidetolerance="10"
     inkscape:pageopacity="0"
     inkscape:pageshadow="2"
     inkscape:window-width="1920"
     inkscape:window-height="1017"
     id="namedview80"
     showgrid="false"
     inkscape:zoom="1"
     inkscape:cx="225.54184"
     inkscape:cy="275.55452"
     inkscape:window-x="-8"
     inkscape:window-y="-8"
     inkscape:window-maximized="1"
     inkscape:current-layer="svg78" />
  <g
     aria-label="x"
     transform="matrix(0.57237139,0,0.10092452,0.57237139,79.999507,172.42418)"
     id="text909"
     style="font-style:normal;font-variant:normal;font-weight:normal;font-stretch:normal;font-size:266.667px;line-height:1.25;font-family:'Segoe UI';-inkscape-font-specification:'Segoe UI';text-align:center;letter-spacing:0px;text-anchor:middle;white-space:pre;shape-inside:url(#rect911);fill:#000000;fill-opacity:1;stroke:none">
    <path
       d="m 276.41023,105.5672 -44.79172,67.44799 44.01047,65.8855 h -24.86983 l -26.1719,-43.22922 q -2.47396,-4.03646 -5.85939,-10.15626 h -0.52083 q -0.65104,1.17188 -6.1198,10.15626 l -26.69274,43.22922 h -24.6094 l 45.44276,-65.36466 -43.48964,-67.96883 h 24.86983 l 25.78128,45.57297 q 2.86458,5.07813 5.59896,10.41668 h 0.52084 l 33.33337,-55.98965 z"
       style="font-style:normal;font-variant:normal;font-weight:normal;font-stretch:normal;font-size:266.667px;font-family:'Segoe UI';-inkscape-font-specification:'Segoe UI';text-align:center;text-anchor:middle"
       id="path931" />
  </g>
  <g
     style="fill:#000000"
     id="g929"
     transform="matrix(15.421347,0,0,15.421347,34.688056,86.889239)">
    <path
       d="m 0.01,0 h 24 v 24 h -24 z"
       fill="none"
       id="path915" />
    <path
       d="M 12,4 V 1 L 8,5 12,9 V 6 c 3.31,0 6,2.69 6,6 0,1.01 -0.25,1.97 -0.7,2.8 l 1.46,1.46 C 19.54,15.03 20,13.57 20,12 20,7.58 16.42,4 12,4 Z m 0,14 C 8.69,18 6,15.31 6,12 6,10.99 6.25,10.03 6.7,9.2 L 5.24,7.74 C 4.46,8.97 4,10.43 4,12 c 0,4.42 3.58,8 8,8 v 3 l 4,-4 -4,-4 z"
       id="path917" />
  </g>
</svg>
